<svg width="100" height="24" viewBox="0 0 100 24" fill="none" xmlns="http://www.w3.org/2000/svg">
<path d="M11.1953 22.6494H7.00121L0 0H4.75674L9.07036 16.8277H9.12842L13.442 0H18.199L11.1953 22.6494Z" fill="#0090D4"/>
<path d="M26.8549 15.196C25.0552 15.5176 21.4784 15.6935 21.4784 18.08C21.4784 19.0414 21.9509 19.826 22.986 19.826C24.7869 19.826 26.0263 18.7777 26.8549 17.7014V15.196ZM27.0895 21.1667C25.4659 22.3025 24.4923 23.0007 22.394 23.0007C19.5288 23.0007 17.1951 21.0783 17.1951 18.1675C17.1951 13.5669 23.3387 12.6358 26.8559 12.2574C27.1519 9.98582 26.3813 9.1714 24.7578 9.1714C23.3699 9.1714 22.3649 9.78205 22.1303 11.2096L17.9331 10.5684C18.9085 7.10155 21.2721 5.99561 24.7266 5.99561C29.1878 5.99561 31.2266 8.09396 31.2266 11.1499V19.2439C31.2266 20.4088 31.2858 21.5733 31.8184 22.6494H27.5642L27.0895 21.1667Z" fill="#0090D4"/>
<path d="M38.287 8.03606C39.6758 6.898 41.3879 5.99561 43.2193 5.99561C45.0213 5.99561 47.563 7.07418 47.563 11.0922V22.6492H43.1902V12.8393C43.1902 11.5276 43.2796 9.4618 41.3879 9.4618C40.1184 9.4618 39.1122 10.3649 38.287 11.237V22.6494H33.9133V6.34616H38.287V8.03606Z" fill="#0090D4"/>
<path d="M54.9181 6.34618H58.3143V9.92727H54.9181V18.2248C54.9181 19.0112 55.156 19.826 56.5719 19.826C57.3124 19.826 57.7835 19.532 58.3138 19.2154V22.5047C57.3982 22.7666 56.4535 23 55.5101 23C52.7911 23 50.5466 21.4863 50.5466 17.9339V9.92727H48.5089V6.34618H50.5466V2.27048H54.9181V6.34618Z" fill="#0090D4"/>
<path d="M63.6915 9.20035C65.3754 7.24855 66.7332 5.99561 68.742 5.99561H69.5681V10.307C69.155 10.2183 68.742 10.131 68.2972 10.131C67.1763 10.131 63.6913 11.1499 63.6913 15.4882V22.6494H59.3198V6.34616H63.6913L63.6915 9.20035Z" fill="#0090D4"/>
<path d="M79.7667 14.4996C79.7667 12.4601 79.3525 9.17074 76.9901 9.17074C74.6277 9.17074 74.2114 12.4601 74.2114 14.4996C74.2114 16.5392 74.6258 19.826 76.9908 19.826C79.3557 19.826 79.7674 16.5367 79.7674 14.4996H79.7667ZM69.725 14.4996C69.725 10.1607 72.1445 5.99585 76.9908 5.99585C81.837 5.99585 84.2568 10.1609 84.2568 14.4996C84.2568 18.8074 81.8058 23 76.9908 23C72.1757 23 69.725 18.8074 69.725 14.4996Z" fill="#0090D4"/>
<path d="M90.7265 8.03606C92.1132 6.89868 93.8274 5.99561 95.6586 5.99561C97.4597 5.99561 100 7.07418 100 11.0922V22.6492H95.6294V12.8393C95.6294 11.5276 95.7178 9.4618 93.8274 9.4618C92.5577 9.4618 91.5526 10.3649 90.7265 11.237V22.6494H86.3537V6.34616H90.7265V8.03606Z" fill="#0090D4"/>
</svg>
